<mxfile host="app.diagrams.net" modified="2022-09-30T09:34:38.693Z" agent="5.0 (Windows NT 10.0; Win64; x64) AppleWebKit/537.36 (KHTML, like Gecko) Chrome/105.0.0.0 Safari/537.36 Edg/105.0.1343.53" etag="maeZgszVN41nL4jvZBUg" version="20.3.6" type="github">
  <diagram id="ngQC4e1yVCpaGIByWZ9d" name="Page-1">
    <mxGraphModel dx="3443" dy="2548" grid="1" gridSize="10" guides="1" tooltips="1" connect="1" arrows="1" fold="1" page="1" pageScale="1" pageWidth="850" pageHeight="1100" math="0" shadow="0">
      <root>
        <mxCell id="0" />
        <mxCell id="1" parent="0" />
        <mxCell id="B_VIeGHvaFGrBdhlPou_-220" value="" style="rounded=0;whiteSpace=wrap;html=1;" vertex="1" parent="1">
          <mxGeometry x="-570" y="-130" width="1860" height="1355.45" as="geometry" />
        </mxCell>
        <mxCell id="B_VIeGHvaFGrBdhlPou_-1" value="Customer" style="whiteSpace=wrap;html=1;align=center;" vertex="1" parent="1">
          <mxGeometry x="290" y="620" width="100" height="40" as="geometry" />
        </mxCell>
        <mxCell id="B_VIeGHvaFGrBdhlPou_-2" value="Book" style="whiteSpace=wrap;html=1;align=center;" vertex="1" parent="1">
          <mxGeometry x="290" y="180" width="100" height="40" as="geometry" />
        </mxCell>
        <mxCell id="B_VIeGHvaFGrBdhlPou_-3" value="&lt;u&gt;SSN&lt;/u&gt;" style="ellipse;whiteSpace=wrap;html=1;align=center;" vertex="1" parent="1">
          <mxGeometry x="100" y="690" width="70" height="30" as="geometry" />
        </mxCell>
        <mxCell id="B_VIeGHvaFGrBdhlPou_-4" value="LName" style="ellipse;whiteSpace=wrap;html=1;align=center;" vertex="1" parent="1">
          <mxGeometry x="410" y="740" width="70" height="30" as="geometry" />
        </mxCell>
        <mxCell id="B_VIeGHvaFGrBdhlPou_-5" value="FName" style="ellipse;whiteSpace=wrap;html=1;align=center;" vertex="1" parent="1">
          <mxGeometry x="490" y="670" width="70" height="30" as="geometry" />
        </mxCell>
        <mxCell id="B_VIeGHvaFGrBdhlPou_-6" value="Address" style="ellipse;whiteSpace=wrap;html=1;align=center;" vertex="1" parent="1">
          <mxGeometry x="120" y="760" width="70" height="30" as="geometry" />
        </mxCell>
        <mxCell id="B_VIeGHvaFGrBdhlPou_-7" value="TelephoneNum" style="ellipse;whiteSpace=wrap;html=1;align=center;" vertex="1" parent="1">
          <mxGeometry x="390" y="820" width="85" height="30" as="geometry" />
        </mxCell>
        <mxCell id="B_VIeGHvaFGrBdhlPou_-8" value="Login_Infor" style="ellipse;whiteSpace=wrap;html=1;align=center;" vertex="1" parent="1">
          <mxGeometry x="480" y="760" width="85" height="30" as="geometry" />
        </mxCell>
        <mxCell id="B_VIeGHvaFGrBdhlPou_-9" value="Shopping_Cart" style="whiteSpace=wrap;html=1;align=center;" vertex="1" parent="1">
          <mxGeometry x="800" y="410" width="100" height="40" as="geometry" />
        </mxCell>
        <mxCell id="B_VIeGHvaFGrBdhlPou_-11" value="C_ID" style="ellipse;whiteSpace=wrap;html=1;align=center;" vertex="1" parent="1">
          <mxGeometry x="220" y="750" width="70" height="30" as="geometry" />
        </mxCell>
        <mxCell id="B_VIeGHvaFGrBdhlPou_-12" value="" style="endArrow=none;html=1;rounded=0;exitX=1;exitY=0.5;exitDx=0;exitDy=0;entryX=0;entryY=0.5;entryDx=0;entryDy=0;" edge="1" parent="1" source="B_VIeGHvaFGrBdhlPou_-3" target="B_VIeGHvaFGrBdhlPou_-1">
          <mxGeometry relative="1" as="geometry">
            <mxPoint x="260" y="600" as="sourcePoint" />
            <mxPoint x="420" y="600" as="targetPoint" />
          </mxGeometry>
        </mxCell>
        <mxCell id="B_VIeGHvaFGrBdhlPou_-13" value="" style="endArrow=none;html=1;rounded=0;exitX=0.5;exitY=0;exitDx=0;exitDy=0;" edge="1" parent="1" source="B_VIeGHvaFGrBdhlPou_-8">
          <mxGeometry relative="1" as="geometry">
            <mxPoint x="260" y="600" as="sourcePoint" />
            <mxPoint x="380" y="660" as="targetPoint" />
          </mxGeometry>
        </mxCell>
        <mxCell id="B_VIeGHvaFGrBdhlPou_-14" value="" style="endArrow=none;html=1;rounded=0;exitX=0;exitY=0;exitDx=0;exitDy=0;entryX=1;entryY=1;entryDx=0;entryDy=0;" edge="1" parent="1" source="B_VIeGHvaFGrBdhlPou_-5" target="B_VIeGHvaFGrBdhlPou_-1">
          <mxGeometry relative="1" as="geometry">
            <mxPoint x="260" y="600" as="sourcePoint" />
            <mxPoint x="420" y="600" as="targetPoint" />
          </mxGeometry>
        </mxCell>
        <mxCell id="B_VIeGHvaFGrBdhlPou_-15" value="" style="endArrow=none;html=1;rounded=0;exitX=0.5;exitY=0;exitDx=0;exitDy=0;entryX=0.5;entryY=1;entryDx=0;entryDy=0;" edge="1" parent="1" source="B_VIeGHvaFGrBdhlPou_-7" target="B_VIeGHvaFGrBdhlPou_-1">
          <mxGeometry relative="1" as="geometry">
            <mxPoint x="260" y="600" as="sourcePoint" />
            <mxPoint x="420" y="600" as="targetPoint" />
          </mxGeometry>
        </mxCell>
        <mxCell id="B_VIeGHvaFGrBdhlPou_-16" value="" style="endArrow=none;html=1;rounded=0;exitX=0.5;exitY=0;exitDx=0;exitDy=0;entryX=0.75;entryY=1;entryDx=0;entryDy=0;" edge="1" parent="1" source="B_VIeGHvaFGrBdhlPou_-4" target="B_VIeGHvaFGrBdhlPou_-1">
          <mxGeometry relative="1" as="geometry">
            <mxPoint x="260" y="600" as="sourcePoint" />
            <mxPoint x="420" y="600" as="targetPoint" />
          </mxGeometry>
        </mxCell>
        <mxCell id="B_VIeGHvaFGrBdhlPou_-17" value="" style="endArrow=none;html=1;rounded=0;exitX=0.5;exitY=0;exitDx=0;exitDy=0;entryX=0.25;entryY=1;entryDx=0;entryDy=0;" edge="1" parent="1" source="B_VIeGHvaFGrBdhlPou_-11" target="B_VIeGHvaFGrBdhlPou_-1">
          <mxGeometry relative="1" as="geometry">
            <mxPoint x="260" y="600" as="sourcePoint" />
            <mxPoint x="420" y="600" as="targetPoint" />
          </mxGeometry>
        </mxCell>
        <mxCell id="B_VIeGHvaFGrBdhlPou_-18" value="" style="endArrow=none;html=1;rounded=0;exitX=0.5;exitY=0;exitDx=0;exitDy=0;entryX=0;entryY=0.75;entryDx=0;entryDy=0;" edge="1" parent="1" source="B_VIeGHvaFGrBdhlPou_-6" target="B_VIeGHvaFGrBdhlPou_-1">
          <mxGeometry relative="1" as="geometry">
            <mxPoint x="260" y="600" as="sourcePoint" />
            <mxPoint x="420" y="600" as="targetPoint" />
          </mxGeometry>
        </mxCell>
        <mxCell id="B_VIeGHvaFGrBdhlPou_-22" value="Staff" style="whiteSpace=wrap;html=1;align=center;" vertex="1" parent="1">
          <mxGeometry x="-370" y="180" width="100" height="40" as="geometry" />
        </mxCell>
        <mxCell id="B_VIeGHvaFGrBdhlPou_-23" value="HAS" style="shape=rhombus;perimeter=rhombusPerimeter;whiteSpace=wrap;html=1;align=center;" vertex="1" parent="1">
          <mxGeometry x="790" y="610" width="120" height="60" as="geometry" />
        </mxCell>
        <mxCell id="B_VIeGHvaFGrBdhlPou_-24" value="" style="endArrow=none;html=1;rounded=0;entryX=0.5;entryY=1;entryDx=0;entryDy=0;exitX=0.5;exitY=0;exitDx=0;exitDy=0;" edge="1" parent="1" source="B_VIeGHvaFGrBdhlPou_-23" target="B_VIeGHvaFGrBdhlPou_-9">
          <mxGeometry relative="1" as="geometry">
            <mxPoint x="340" y="490" as="sourcePoint" />
            <mxPoint x="730" y="500" as="targetPoint" />
          </mxGeometry>
        </mxCell>
        <mxCell id="B_VIeGHvaFGrBdhlPou_-25" value="1" style="resizable=0;html=1;align=right;verticalAlign=bottom;" connectable="0" vertex="1" parent="B_VIeGHvaFGrBdhlPou_-24">
          <mxGeometry x="1" relative="1" as="geometry">
            <mxPoint y="80" as="offset" />
          </mxGeometry>
        </mxCell>
        <mxCell id="B_VIeGHvaFGrBdhlPou_-28" value="CONTAIN" style="shape=rhombus;perimeter=rhombusPerimeter;whiteSpace=wrap;html=1;align=center;" vertex="1" parent="1">
          <mxGeometry x="790" y="170" width="120" height="60" as="geometry" />
        </mxCell>
        <mxCell id="B_VIeGHvaFGrBdhlPou_-30" value="" style="endArrow=none;html=1;rounded=0;entryX=0.5;entryY=0;entryDx=0;entryDy=0;exitX=0.5;exitY=1;exitDx=0;exitDy=0;" edge="1" parent="1" source="B_VIeGHvaFGrBdhlPou_-28" target="B_VIeGHvaFGrBdhlPou_-9">
          <mxGeometry relative="1" as="geometry">
            <mxPoint x="340" y="390" as="sourcePoint" />
            <mxPoint x="500" y="390" as="targetPoint" />
          </mxGeometry>
        </mxCell>
        <mxCell id="B_VIeGHvaFGrBdhlPou_-35" value="" style="endArrow=none;html=1;rounded=0;entryX=0;entryY=0.5;entryDx=0;entryDy=0;exitX=1;exitY=0.5;exitDx=0;exitDy=0;" edge="1" parent="1" source="B_VIeGHvaFGrBdhlPou_-2" target="B_VIeGHvaFGrBdhlPou_-28">
          <mxGeometry relative="1" as="geometry">
            <mxPoint x="340" y="390" as="sourcePoint" />
            <mxPoint x="500" y="390" as="targetPoint" />
          </mxGeometry>
        </mxCell>
        <mxCell id="B_VIeGHvaFGrBdhlPou_-36" value="N" style="resizable=0;html=1;align=right;verticalAlign=bottom;" connectable="0" vertex="1" parent="B_VIeGHvaFGrBdhlPou_-35">
          <mxGeometry x="1" relative="1" as="geometry" />
        </mxCell>
        <mxCell id="B_VIeGHvaFGrBdhlPou_-39" value="" style="shape=link;html=1;rounded=0;entryX=0;entryY=0.5;entryDx=0;entryDy=0;exitX=1;exitY=0.5;exitDx=0;exitDy=0;" edge="1" parent="1" source="B_VIeGHvaFGrBdhlPou_-1" target="B_VIeGHvaFGrBdhlPou_-23">
          <mxGeometry relative="1" as="geometry">
            <mxPoint x="340" y="490" as="sourcePoint" />
            <mxPoint x="500" y="490" as="targetPoint" />
          </mxGeometry>
        </mxCell>
        <mxCell id="B_VIeGHvaFGrBdhlPou_-40" value="1" style="resizable=0;html=1;align=right;verticalAlign=bottom;" connectable="0" vertex="1" parent="B_VIeGHvaFGrBdhlPou_-39">
          <mxGeometry x="1" relative="1" as="geometry" />
        </mxCell>
        <mxCell id="B_VIeGHvaFGrBdhlPou_-41" value="IMPORT" style="shape=rhombus;perimeter=rhombusPerimeter;whiteSpace=wrap;html=1;align=center;" vertex="1" parent="1">
          <mxGeometry x="-20" y="170" width="120" height="60" as="geometry" />
        </mxCell>
        <mxCell id="B_VIeGHvaFGrBdhlPou_-44" value="" style="shape=link;html=1;rounded=0;exitX=1;exitY=0.5;exitDx=0;exitDy=0;entryX=0;entryY=0.5;entryDx=0;entryDy=0;" edge="1" parent="1" source="B_VIeGHvaFGrBdhlPou_-41" target="B_VIeGHvaFGrBdhlPou_-2">
          <mxGeometry relative="1" as="geometry">
            <mxPoint x="340" y="300" as="sourcePoint" />
            <mxPoint x="500" y="300" as="targetPoint" />
          </mxGeometry>
        </mxCell>
        <mxCell id="B_VIeGHvaFGrBdhlPou_-45" value="N" style="resizable=0;html=1;align=right;verticalAlign=bottom;" connectable="0" vertex="1" parent="B_VIeGHvaFGrBdhlPou_-44">
          <mxGeometry x="1" relative="1" as="geometry">
            <mxPoint x="-70" as="offset" />
          </mxGeometry>
        </mxCell>
        <mxCell id="B_VIeGHvaFGrBdhlPou_-46" value="" style="endArrow=none;html=1;rounded=0;exitX=1;exitY=0.5;exitDx=0;exitDy=0;entryX=0;entryY=0.5;entryDx=0;entryDy=0;" edge="1" parent="1" source="B_VIeGHvaFGrBdhlPou_-22" target="B_VIeGHvaFGrBdhlPou_-41">
          <mxGeometry relative="1" as="geometry">
            <mxPoint x="220" y="300" as="sourcePoint" />
            <mxPoint x="380" y="300" as="targetPoint" />
          </mxGeometry>
        </mxCell>
        <mxCell id="B_VIeGHvaFGrBdhlPou_-47" value="1" style="resizable=0;html=1;align=right;verticalAlign=bottom;" connectable="0" vertex="1" parent="B_VIeGHvaFGrBdhlPou_-46">
          <mxGeometry x="1" relative="1" as="geometry" />
        </mxCell>
        <mxCell id="B_VIeGHvaFGrBdhlPou_-49" value="Date/Time" style="ellipse;whiteSpace=wrap;html=1;align=center;" vertex="1" parent="1">
          <mxGeometry x="-50" y="260" width="70" height="30" as="geometry" />
        </mxCell>
        <mxCell id="B_VIeGHvaFGrBdhlPou_-51" value="" style="endArrow=none;html=1;rounded=0;exitX=0.5;exitY=1;exitDx=0;exitDy=0;entryX=0.5;entryY=0;entryDx=0;entryDy=0;" edge="1" parent="1" source="B_VIeGHvaFGrBdhlPou_-41" target="B_VIeGHvaFGrBdhlPou_-49">
          <mxGeometry relative="1" as="geometry">
            <mxPoint x="220" y="300" as="sourcePoint" />
            <mxPoint x="380" y="300" as="targetPoint" />
          </mxGeometry>
        </mxCell>
        <mxCell id="B_VIeGHvaFGrBdhlPou_-52" value="ORDER" style="shape=rhombus;perimeter=rhombusPerimeter;whiteSpace=wrap;html=1;align=center;" vertex="1" parent="1">
          <mxGeometry x="127.5" y="490" width="75" height="40" as="geometry" />
        </mxCell>
        <mxCell id="B_VIeGHvaFGrBdhlPou_-53" value="" style="endArrow=none;html=1;rounded=0;exitX=0.5;exitY=1;exitDx=0;exitDy=0;entryX=0.5;entryY=0;entryDx=0;entryDy=0;" edge="1" parent="1" source="B_VIeGHvaFGrBdhlPou_-83" target="B_VIeGHvaFGrBdhlPou_-52">
          <mxGeometry relative="1" as="geometry">
            <mxPoint x="340" y="390" as="sourcePoint" />
            <mxPoint x="500" y="390" as="targetPoint" />
          </mxGeometry>
        </mxCell>
        <mxCell id="B_VIeGHvaFGrBdhlPou_-54" value="N" style="resizable=0;html=1;align=right;verticalAlign=bottom;" connectable="0" vertex="1" parent="B_VIeGHvaFGrBdhlPou_-53">
          <mxGeometry x="1" relative="1" as="geometry">
            <mxPoint x="-10" y="-40" as="offset" />
          </mxGeometry>
        </mxCell>
        <mxCell id="B_VIeGHvaFGrBdhlPou_-55" value="" style="endArrow=none;html=1;rounded=0;exitX=0.5;exitY=1;exitDx=0;exitDy=0;entryX=0.25;entryY=0;entryDx=0;entryDy=0;" edge="1" parent="1" source="B_VIeGHvaFGrBdhlPou_-52" target="B_VIeGHvaFGrBdhlPou_-1">
          <mxGeometry relative="1" as="geometry">
            <mxPoint x="340" y="490" as="sourcePoint" />
            <mxPoint x="340" y="600" as="targetPoint" />
            <Array as="points">
              <mxPoint x="165" y="600" />
              <mxPoint x="290" y="600" />
            </Array>
          </mxGeometry>
        </mxCell>
        <mxCell id="B_VIeGHvaFGrBdhlPou_-56" value="1" style="resizable=0;html=1;align=right;verticalAlign=bottom;" connectable="0" vertex="1" parent="B_VIeGHvaFGrBdhlPou_-55">
          <mxGeometry x="1" relative="1" as="geometry">
            <mxPoint x="-100" as="offset" />
          </mxGeometry>
        </mxCell>
        <mxCell id="B_VIeGHvaFGrBdhlPou_-57" value="Date/Time" style="ellipse;whiteSpace=wrap;html=1;align=center;" vertex="1" parent="1">
          <mxGeometry x="-7.569999999999993" y="470" width="70" height="30" as="geometry" />
        </mxCell>
        <mxCell id="B_VIeGHvaFGrBdhlPou_-58" value="Status" style="ellipse;whiteSpace=wrap;html=1;align=center;" vertex="1" parent="1">
          <mxGeometry x="-7.569999999999993" y="515" width="70" height="30" as="geometry" />
        </mxCell>
        <mxCell id="B_VIeGHvaFGrBdhlPou_-59" value="&lt;u&gt;ID&lt;/u&gt;" style="ellipse;whiteSpace=wrap;html=1;align=center;" vertex="1" parent="1">
          <mxGeometry x="-7.569999999999993" y="565" width="70" height="30" as="geometry" />
        </mxCell>
        <mxCell id="B_VIeGHvaFGrBdhlPou_-60" value="" style="endArrow=none;html=1;rounded=0;exitX=0;exitY=0;exitDx=0;exitDy=0;entryX=1;entryY=0.5;entryDx=0;entryDy=0;" edge="1" parent="1" source="B_VIeGHvaFGrBdhlPou_-52" target="B_VIeGHvaFGrBdhlPou_-57">
          <mxGeometry relative="1" as="geometry">
            <mxPoint x="92.42999999999978" y="515" as="sourcePoint" />
            <mxPoint x="477.43" y="495" as="targetPoint" />
          </mxGeometry>
        </mxCell>
        <mxCell id="B_VIeGHvaFGrBdhlPou_-61" value="" style="endArrow=none;html=1;rounded=0;exitX=0;exitY=0.5;exitDx=0;exitDy=0;entryX=1;entryY=0.5;entryDx=0;entryDy=0;" edge="1" parent="1" source="B_VIeGHvaFGrBdhlPou_-52" target="B_VIeGHvaFGrBdhlPou_-58">
          <mxGeometry relative="1" as="geometry">
            <mxPoint x="92.42999999999978" y="515" as="sourcePoint" />
            <mxPoint x="477.43" y="495" as="targetPoint" />
          </mxGeometry>
        </mxCell>
        <mxCell id="B_VIeGHvaFGrBdhlPou_-62" value="" style="endArrow=none;html=1;rounded=0;exitX=1;exitY=0.5;exitDx=0;exitDy=0;entryX=0;entryY=1;entryDx=0;entryDy=0;" edge="1" parent="1" source="B_VIeGHvaFGrBdhlPou_-59" target="B_VIeGHvaFGrBdhlPou_-52">
          <mxGeometry relative="1" as="geometry">
            <mxPoint x="317.43" y="495" as="sourcePoint" />
            <mxPoint x="92.42999999999978" y="515" as="targetPoint" />
          </mxGeometry>
        </mxCell>
        <mxCell id="B_VIeGHvaFGrBdhlPou_-64" value="&lt;u&gt;ID&lt;/u&gt;" style="ellipse;whiteSpace=wrap;html=1;align=center;" vertex="1" parent="1">
          <mxGeometry x="-50" y="110" width="70" height="30" as="geometry" />
        </mxCell>
        <mxCell id="B_VIeGHvaFGrBdhlPou_-65" value="" style="endArrow=none;html=1;rounded=0;exitX=0.5;exitY=1;exitDx=0;exitDy=0;entryX=0.5;entryY=0;entryDx=0;entryDy=0;" edge="1" parent="1" source="B_VIeGHvaFGrBdhlPou_-64" target="B_VIeGHvaFGrBdhlPou_-41">
          <mxGeometry relative="1" as="geometry">
            <mxPoint x="60" y="210" as="sourcePoint" />
            <mxPoint x="220" y="210" as="targetPoint" />
          </mxGeometry>
        </mxCell>
        <mxCell id="B_VIeGHvaFGrBdhlPou_-66" value="Publisher" style="ellipse;whiteSpace=wrap;html=1;align=center;" vertex="1" parent="1">
          <mxGeometry x="385" y="40" width="70" height="30" as="geometry" />
        </mxCell>
        <mxCell id="B_VIeGHvaFGrBdhlPou_-67" value="Title" style="ellipse;whiteSpace=wrap;html=1;align=center;" vertex="1" parent="1">
          <mxGeometry x="145" y="140" width="70" height="30" as="geometry" />
        </mxCell>
        <mxCell id="B_VIeGHvaFGrBdhlPou_-68" value="Num_of_copies" style="ellipse;whiteSpace=wrap;html=1;align=center;" vertex="1" parent="1">
          <mxGeometry x="480" y="110" width="100" height="30" as="geometry" />
        </mxCell>
        <mxCell id="B_VIeGHvaFGrBdhlPou_-69" value="Author" style="ellipse;whiteSpace=wrap;html=1;align=center;" vertex="1" parent="1">
          <mxGeometry x="480" y="40" width="70" height="30" as="geometry" />
        </mxCell>
        <mxCell id="B_VIeGHvaFGrBdhlPou_-70" value="&lt;u&gt;ID&lt;/u&gt;" style="ellipse;whiteSpace=wrap;html=1;align=center;" vertex="1" parent="1">
          <mxGeometry x="150" y="90" width="70" height="30" as="geometry" />
        </mxCell>
        <mxCell id="B_VIeGHvaFGrBdhlPou_-71" value="Publishing_year" style="ellipse;whiteSpace=wrap;html=1;align=center;" vertex="1" parent="1">
          <mxGeometry x="190" y="40" width="100" height="30" as="geometry" />
        </mxCell>
        <mxCell id="B_VIeGHvaFGrBdhlPou_-72" value="" style="endArrow=none;html=1;rounded=0;exitX=0;exitY=0;exitDx=0;exitDy=0;entryX=1;entryY=0;entryDx=0;entryDy=0;" edge="1" parent="1" source="B_VIeGHvaFGrBdhlPou_-2" target="B_VIeGHvaFGrBdhlPou_-67">
          <mxGeometry relative="1" as="geometry">
            <mxPoint x="180" y="280" as="sourcePoint" />
            <mxPoint x="340" y="280" as="targetPoint" />
          </mxGeometry>
        </mxCell>
        <mxCell id="B_VIeGHvaFGrBdhlPou_-73" value="" style="endArrow=none;html=1;rounded=0;entryX=0.5;entryY=1;entryDx=0;entryDy=0;exitX=0.5;exitY=0;exitDx=0;exitDy=0;" edge="1" parent="1" source="B_VIeGHvaFGrBdhlPou_-2" target="B_VIeGHvaFGrBdhlPou_-71">
          <mxGeometry relative="1" as="geometry">
            <mxPoint x="350" y="220" as="sourcePoint" />
            <mxPoint x="340" y="280" as="targetPoint" />
          </mxGeometry>
        </mxCell>
        <mxCell id="B_VIeGHvaFGrBdhlPou_-74" value="" style="endArrow=none;html=1;rounded=0;entryX=0.5;entryY=0;entryDx=0;entryDy=0;exitX=0;exitY=1;exitDx=0;exitDy=0;" edge="1" parent="1" source="B_VIeGHvaFGrBdhlPou_-66" target="B_VIeGHvaFGrBdhlPou_-2">
          <mxGeometry relative="1" as="geometry">
            <mxPoint x="180" y="280" as="sourcePoint" />
            <mxPoint x="340" y="280" as="targetPoint" />
          </mxGeometry>
        </mxCell>
        <mxCell id="B_VIeGHvaFGrBdhlPou_-75" value="" style="endArrow=none;html=1;rounded=0;entryX=1;entryY=0;entryDx=0;entryDy=0;exitX=0;exitY=0.5;exitDx=0;exitDy=0;" edge="1" parent="1" source="B_VIeGHvaFGrBdhlPou_-68" target="B_VIeGHvaFGrBdhlPou_-2">
          <mxGeometry relative="1" as="geometry">
            <mxPoint x="180" y="280" as="sourcePoint" />
            <mxPoint x="340" y="280" as="targetPoint" />
          </mxGeometry>
        </mxCell>
        <mxCell id="B_VIeGHvaFGrBdhlPou_-76" value="" style="endArrow=none;html=1;rounded=0;entryX=0.25;entryY=0;entryDx=0;entryDy=0;exitX=1;exitY=0.5;exitDx=0;exitDy=0;" edge="1" parent="1" source="B_VIeGHvaFGrBdhlPou_-70" target="B_VIeGHvaFGrBdhlPou_-2">
          <mxGeometry relative="1" as="geometry">
            <mxPoint x="180" y="280" as="sourcePoint" />
            <mxPoint x="340" y="280" as="targetPoint" />
          </mxGeometry>
        </mxCell>
        <mxCell id="B_VIeGHvaFGrBdhlPou_-77" value="" style="endArrow=none;html=1;rounded=0;entryX=0.75;entryY=0;entryDx=0;entryDy=0;exitX=0;exitY=1;exitDx=0;exitDy=0;" edge="1" parent="1" source="B_VIeGHvaFGrBdhlPou_-69" target="B_VIeGHvaFGrBdhlPou_-2">
          <mxGeometry relative="1" as="geometry">
            <mxPoint x="180" y="280" as="sourcePoint" />
            <mxPoint x="340" y="280" as="targetPoint" />
          </mxGeometry>
        </mxCell>
        <mxCell id="B_VIeGHvaFGrBdhlPou_-79" value="&lt;b&gt;d&lt;/b&gt;" style="ellipse;whiteSpace=wrap;html=1;aspect=fixed;" vertex="1" parent="1">
          <mxGeometry x="325" y="270" width="30" height="30" as="geometry" />
        </mxCell>
        <mxCell id="B_VIeGHvaFGrBdhlPou_-81" value="" style="shape=link;html=1;rounded=0;entryX=0.5;entryY=0;entryDx=0;entryDy=0;exitX=0.5;exitY=1;exitDx=0;exitDy=0;" edge="1" parent="1" source="B_VIeGHvaFGrBdhlPou_-2" target="B_VIeGHvaFGrBdhlPou_-79">
          <mxGeometry relative="1" as="geometry">
            <mxPoint x="180" y="190" as="sourcePoint" />
            <mxPoint x="340" y="190" as="targetPoint" />
          </mxGeometry>
        </mxCell>
        <mxCell id="B_VIeGHvaFGrBdhlPou_-83" value="&lt;div&gt;&lt;span style=&quot;background-color: initial;&quot;&gt;Books_for_sale&lt;/span&gt;&lt;br&gt;&lt;/div&gt;" style="whiteSpace=wrap;html=1;align=center;" vertex="1" parent="1">
          <mxGeometry x="115" y="330" width="100" height="40" as="geometry" />
        </mxCell>
        <mxCell id="B_VIeGHvaFGrBdhlPou_-84" value="Books_for_loan" style="whiteSpace=wrap;html=1;align=center;" vertex="1" parent="1">
          <mxGeometry x="490" y="330" width="100" height="40" as="geometry" />
        </mxCell>
        <mxCell id="B_VIeGHvaFGrBdhlPou_-85" value="" style="endArrow=none;html=1;rounded=0;exitX=0.5;exitY=0;exitDx=0;exitDy=0;entryX=1;entryY=0.5;entryDx=0;entryDy=0;" edge="1" parent="1" source="B_VIeGHvaFGrBdhlPou_-84" target="B_VIeGHvaFGrBdhlPou_-79">
          <mxGeometry relative="1" as="geometry">
            <mxPoint x="180" y="100" as="sourcePoint" />
            <mxPoint x="340" y="100" as="targetPoint" />
            <Array as="points">
              <mxPoint x="540" y="285" />
            </Array>
          </mxGeometry>
        </mxCell>
        <mxCell id="B_VIeGHvaFGrBdhlPou_-96" value="" style="group" vertex="1" connectable="0" parent="1">
          <mxGeometry x="255.55456351736996" y="-5.445436482630058" width="38.890872965260115" height="38.890872965260115" as="geometry" />
        </mxCell>
        <mxCell id="B_VIeGHvaFGrBdhlPou_-86" value="" style="endArrow=none;html=1;rounded=0;exitX=0.5;exitY=0;exitDx=0;exitDy=0;entryX=0;entryY=0.5;entryDx=0;entryDy=0;" edge="1" parent="B_VIeGHvaFGrBdhlPou_-96" source="B_VIeGHvaFGrBdhlPou_-83" target="B_VIeGHvaFGrBdhlPou_-79">
          <mxGeometry relative="1" as="geometry">
            <mxPoint x="-75.55456351736994" y="105.44543648263006" as="sourcePoint" />
            <mxPoint x="84.44543648263006" y="105.44543648263006" as="targetPoint" />
            <Array as="points">
              <mxPoint x="-90.55456351736996" y="290.44543648263004" />
            </Array>
          </mxGeometry>
        </mxCell>
        <mxCell id="B_VIeGHvaFGrBdhlPou_-99" value="LOAN" style="shape=rhombus;perimeter=rhombusPerimeter;whiteSpace=wrap;html=1;align=center;" vertex="1" parent="1">
          <mxGeometry x="502.5" y="480" width="75" height="40" as="geometry" />
        </mxCell>
        <mxCell id="B_VIeGHvaFGrBdhlPou_-102" value="" style="endArrow=none;html=1;rounded=0;entryX=0.5;entryY=1;entryDx=0;entryDy=0;exitX=0.5;exitY=0;exitDx=0;exitDy=0;" edge="1" parent="1" source="B_VIeGHvaFGrBdhlPou_-99" target="B_VIeGHvaFGrBdhlPou_-84">
          <mxGeometry relative="1" as="geometry">
            <mxPoint x="240" y="530" as="sourcePoint" />
            <mxPoint x="400" y="530" as="targetPoint" />
          </mxGeometry>
        </mxCell>
        <mxCell id="B_VIeGHvaFGrBdhlPou_-103" value="N" style="resizable=0;html=1;align=right;verticalAlign=bottom;" connectable="0" vertex="1" parent="B_VIeGHvaFGrBdhlPou_-102">
          <mxGeometry x="1" relative="1" as="geometry">
            <mxPoint y="60" as="offset" />
          </mxGeometry>
        </mxCell>
        <mxCell id="B_VIeGHvaFGrBdhlPou_-104" value="" style="endArrow=none;html=1;rounded=0;entryX=0.5;entryY=1;entryDx=0;entryDy=0;exitX=0.75;exitY=0;exitDx=0;exitDy=0;" edge="1" parent="1" source="B_VIeGHvaFGrBdhlPou_-1" target="B_VIeGHvaFGrBdhlPou_-99">
          <mxGeometry relative="1" as="geometry">
            <mxPoint x="240" y="530" as="sourcePoint" />
            <mxPoint x="400" y="530" as="targetPoint" />
            <Array as="points">
              <mxPoint x="380" y="600" />
              <mxPoint x="540" y="600" />
            </Array>
          </mxGeometry>
        </mxCell>
        <mxCell id="B_VIeGHvaFGrBdhlPou_-105" value="1" style="resizable=0;html=1;align=right;verticalAlign=bottom;" connectable="0" vertex="1" parent="B_VIeGHvaFGrBdhlPou_-104">
          <mxGeometry x="1" relative="1" as="geometry">
            <mxPoint y="40" as="offset" />
          </mxGeometry>
        </mxCell>
        <mxCell id="B_VIeGHvaFGrBdhlPou_-106" value="Price" style="ellipse;whiteSpace=wrap;html=1;align=center;" vertex="1" parent="1">
          <mxGeometry x="7.105427357601002e-15" y="380" width="70" height="30" as="geometry" />
        </mxCell>
        <mxCell id="B_VIeGHvaFGrBdhlPou_-107" value="" style="endArrow=none;html=1;rounded=0;exitX=1;exitY=0.5;exitDx=0;exitDy=0;entryX=0;entryY=0.5;entryDx=0;entryDy=0;" edge="1" parent="1" source="B_VIeGHvaFGrBdhlPou_-106" target="B_VIeGHvaFGrBdhlPou_-83">
          <mxGeometry relative="1" as="geometry">
            <mxPoint x="300" y="350" as="sourcePoint" />
            <mxPoint x="460" y="350" as="targetPoint" />
          </mxGeometry>
        </mxCell>
        <mxCell id="B_VIeGHvaFGrBdhlPou_-110" value="Rate" style="ellipse;whiteSpace=wrap;html=1;align=center;" vertex="1" parent="1">
          <mxGeometry x="640" y="335" width="70" height="30" as="geometry" />
        </mxCell>
        <mxCell id="B_VIeGHvaFGrBdhlPou_-111" value="" style="endArrow=none;html=1;rounded=0;exitX=1;exitY=0.5;exitDx=0;exitDy=0;entryX=0;entryY=0.5;entryDx=0;entryDy=0;" edge="1" parent="1" source="B_VIeGHvaFGrBdhlPou_-84" target="B_VIeGHvaFGrBdhlPou_-110">
          <mxGeometry relative="1" as="geometry">
            <mxPoint x="300" y="420" as="sourcePoint" />
            <mxPoint x="460" y="420" as="targetPoint" />
          </mxGeometry>
        </mxCell>
        <mxCell id="B_VIeGHvaFGrBdhlPou_-112" value="Date/Time" style="ellipse;whiteSpace=wrap;html=1;align=center;" vertex="1" parent="1">
          <mxGeometry x="600" y="450" width="70" height="30" as="geometry" />
        </mxCell>
        <mxCell id="B_VIeGHvaFGrBdhlPou_-113" value="Status" style="ellipse;whiteSpace=wrap;html=1;align=center;" vertex="1" parent="1">
          <mxGeometry x="600" y="500" width="70" height="30" as="geometry" />
        </mxCell>
        <mxCell id="B_VIeGHvaFGrBdhlPou_-114" value="&lt;u&gt;ID&lt;/u&gt;" style="ellipse;whiteSpace=wrap;html=1;align=center;" vertex="1" parent="1">
          <mxGeometry x="415" y="430" width="70" height="30" as="geometry" />
        </mxCell>
        <mxCell id="B_VIeGHvaFGrBdhlPou_-115" value="" style="endArrow=none;html=1;rounded=0;exitX=0;exitY=0.5;exitDx=0;exitDy=0;entryX=1;entryY=1;entryDx=0;entryDy=0;" edge="1" parent="1" source="B_VIeGHvaFGrBdhlPou_-113" target="B_VIeGHvaFGrBdhlPou_-99">
          <mxGeometry relative="1" as="geometry">
            <mxPoint x="300" y="420" as="sourcePoint" />
            <mxPoint x="460" y="420" as="targetPoint" />
          </mxGeometry>
        </mxCell>
        <mxCell id="B_VIeGHvaFGrBdhlPou_-116" value="" style="endArrow=none;html=1;rounded=0;exitX=0;exitY=1;exitDx=0;exitDy=0;entryX=1;entryY=0;entryDx=0;entryDy=0;" edge="1" parent="1" source="B_VIeGHvaFGrBdhlPou_-112" target="B_VIeGHvaFGrBdhlPou_-99">
          <mxGeometry relative="1" as="geometry">
            <mxPoint x="300" y="420" as="sourcePoint" />
            <mxPoint x="460" y="420" as="targetPoint" />
          </mxGeometry>
        </mxCell>
        <mxCell id="B_VIeGHvaFGrBdhlPou_-117" value="" style="endArrow=none;html=1;rounded=0;exitX=0;exitY=0;exitDx=0;exitDy=0;entryX=1;entryY=1;entryDx=0;entryDy=0;" edge="1" parent="1" source="B_VIeGHvaFGrBdhlPou_-99" target="B_VIeGHvaFGrBdhlPou_-114">
          <mxGeometry relative="1" as="geometry">
            <mxPoint x="300" y="420" as="sourcePoint" />
            <mxPoint x="460" y="420" as="targetPoint" />
          </mxGeometry>
        </mxCell>
        <mxCell id="B_VIeGHvaFGrBdhlPou_-118" value="" style="endArrow=none;html=1;rounded=0;exitX=1;exitY=0.5;exitDx=0;exitDy=0;entryX=0;entryY=1;entryDx=0;entryDy=0;" edge="1" parent="1" source="B_VIeGHvaFGrBdhlPou_-119" target="B_VIeGHvaFGrBdhlPou_-99">
          <mxGeometry relative="1" as="geometry">
            <mxPoint x="300" y="420" as="sourcePoint" />
            <mxPoint x="460" y="420" as="targetPoint" />
          </mxGeometry>
        </mxCell>
        <mxCell id="B_VIeGHvaFGrBdhlPou_-119" value="expired time" style="ellipse;whiteSpace=wrap;html=1;align=center;" vertex="1" parent="1">
          <mxGeometry x="410" y="500" width="70" height="30" as="geometry" />
        </mxCell>
        <mxCell id="B_VIeGHvaFGrBdhlPou_-120" value="Staff_ID" style="ellipse;whiteSpace=wrap;html=1;align=center;fontStyle=4" vertex="1" parent="1">
          <mxGeometry x="-490" y="140" width="70" height="30" as="geometry" />
        </mxCell>
        <mxCell id="B_VIeGHvaFGrBdhlPou_-121" value="LName" style="ellipse;whiteSpace=wrap;html=1;align=center;" vertex="1" parent="1">
          <mxGeometry x="-500" y="190" width="70" height="30" as="geometry" />
        </mxCell>
        <mxCell id="B_VIeGHvaFGrBdhlPou_-122" value="SSN" style="ellipse;whiteSpace=wrap;html=1;align=center;fontStyle=4" vertex="1" parent="1">
          <mxGeometry x="-500" y="240" width="70" height="30" as="geometry" />
        </mxCell>
        <mxCell id="B_VIeGHvaFGrBdhlPou_-123" value="FName" style="ellipse;whiteSpace=wrap;html=1;align=center;" vertex="1" parent="1">
          <mxGeometry x="-480" y="290" width="70" height="30" as="geometry" />
        </mxCell>
        <mxCell id="B_VIeGHvaFGrBdhlPou_-126" value="TelephoneNum" style="ellipse;shape=doubleEllipse;margin=3;whiteSpace=wrap;html=1;align=center;" vertex="1" parent="1">
          <mxGeometry x="-430" y="100" width="100" height="30" as="geometry" />
        </mxCell>
        <mxCell id="B_VIeGHvaFGrBdhlPou_-127" value="Address" style="ellipse;shape=doubleEllipse;margin=3;whiteSpace=wrap;html=1;align=center;" vertex="1" parent="1">
          <mxGeometry x="-400" y="320" width="100" height="30" as="geometry" />
        </mxCell>
        <mxCell id="B_VIeGHvaFGrBdhlPou_-128" value="" style="endArrow=none;html=1;rounded=0;exitX=0.573;exitY=-0.022;exitDx=0;exitDy=0;exitPerimeter=0;entryX=0.5;entryY=1;entryDx=0;entryDy=0;" edge="1" parent="1" source="B_VIeGHvaFGrBdhlPou_-127" target="B_VIeGHvaFGrBdhlPou_-22">
          <mxGeometry relative="1" as="geometry">
            <mxPoint x="-270" y="190" as="sourcePoint" />
            <mxPoint x="-110" y="190" as="targetPoint" />
          </mxGeometry>
        </mxCell>
        <mxCell id="B_VIeGHvaFGrBdhlPou_-129" value="" style="endArrow=none;html=1;rounded=0;exitX=1;exitY=0.5;exitDx=0;exitDy=0;entryX=0.5;entryY=1;entryDx=0;entryDy=0;" edge="1" parent="1" source="B_VIeGHvaFGrBdhlPou_-123" target="B_VIeGHvaFGrBdhlPou_-22">
          <mxGeometry relative="1" as="geometry">
            <mxPoint x="-270" y="190" as="sourcePoint" />
            <mxPoint x="-110" y="190" as="targetPoint" />
          </mxGeometry>
        </mxCell>
        <mxCell id="B_VIeGHvaFGrBdhlPou_-130" value="" style="endArrow=none;html=1;rounded=0;exitX=1;exitY=0.5;exitDx=0;exitDy=0;entryX=0;entryY=1;entryDx=0;entryDy=0;" edge="1" parent="1" source="B_VIeGHvaFGrBdhlPou_-122" target="B_VIeGHvaFGrBdhlPou_-22">
          <mxGeometry relative="1" as="geometry">
            <mxPoint x="-270" y="190" as="sourcePoint" />
            <mxPoint x="-110" y="190" as="targetPoint" />
          </mxGeometry>
        </mxCell>
        <mxCell id="B_VIeGHvaFGrBdhlPou_-131" value="" style="endArrow=none;html=1;rounded=0;exitX=1;exitY=0.5;exitDx=0;exitDy=0;entryX=0;entryY=0.5;entryDx=0;entryDy=0;" edge="1" parent="1" source="B_VIeGHvaFGrBdhlPou_-121" target="B_VIeGHvaFGrBdhlPou_-22">
          <mxGeometry relative="1" as="geometry">
            <mxPoint x="-270" y="190" as="sourcePoint" />
            <mxPoint x="-110" y="190" as="targetPoint" />
          </mxGeometry>
        </mxCell>
        <mxCell id="B_VIeGHvaFGrBdhlPou_-132" value="" style="endArrow=none;html=1;rounded=0;exitX=0.99;exitY=0.711;exitDx=0;exitDy=0;exitPerimeter=0;entryX=0;entryY=0;entryDx=0;entryDy=0;" edge="1" parent="1" source="B_VIeGHvaFGrBdhlPou_-120" target="B_VIeGHvaFGrBdhlPou_-22">
          <mxGeometry relative="1" as="geometry">
            <mxPoint x="-270" y="190" as="sourcePoint" />
            <mxPoint x="-110" y="190" as="targetPoint" />
          </mxGeometry>
        </mxCell>
        <mxCell id="B_VIeGHvaFGrBdhlPou_-133" value="" style="endArrow=none;html=1;rounded=0;exitX=0.5;exitY=1;exitDx=0;exitDy=0;entryX=0.5;entryY=0;entryDx=0;entryDy=0;" edge="1" parent="1" source="B_VIeGHvaFGrBdhlPou_-126" target="B_VIeGHvaFGrBdhlPou_-22">
          <mxGeometry relative="1" as="geometry">
            <mxPoint x="-270" y="190" as="sourcePoint" />
            <mxPoint x="-110" y="190" as="targetPoint" />
          </mxGeometry>
        </mxCell>
        <mxCell id="B_VIeGHvaFGrBdhlPou_-159" value="Feedback" style="whiteSpace=wrap;html=1;align=center;" vertex="1" parent="1">
          <mxGeometry x="-340" y="620" width="100" height="40" as="geometry" />
        </mxCell>
        <mxCell id="B_VIeGHvaFGrBdhlPou_-160" value="GIVE" style="shape=rhombus;perimeter=rhombusPerimeter;whiteSpace=wrap;html=1;align=center;" vertex="1" parent="1">
          <mxGeometry x="-100" y="620" width="80" height="40" as="geometry" />
        </mxCell>
        <mxCell id="B_VIeGHvaFGrBdhlPou_-161" value="" style="endArrow=none;html=1;rounded=0;exitX=1;exitY=0.5;exitDx=0;exitDy=0;entryX=0;entryY=0.5;entryDx=0;entryDy=0;" edge="1" parent="1" source="B_VIeGHvaFGrBdhlPou_-160" target="B_VIeGHvaFGrBdhlPou_-1">
          <mxGeometry relative="1" as="geometry">
            <mxPoint x="-60" y="620" as="sourcePoint" />
            <mxPoint x="100" y="620" as="targetPoint" />
          </mxGeometry>
        </mxCell>
        <mxCell id="B_VIeGHvaFGrBdhlPou_-162" value="1" style="resizable=0;html=1;align=right;verticalAlign=bottom;" connectable="0" vertex="1" parent="B_VIeGHvaFGrBdhlPou_-161">
          <mxGeometry x="1" relative="1" as="geometry">
            <mxPoint x="-110" as="offset" />
          </mxGeometry>
        </mxCell>
        <mxCell id="B_VIeGHvaFGrBdhlPou_-163" value="" style="shape=link;html=1;rounded=0;exitX=1;exitY=0.5;exitDx=0;exitDy=0;entryX=0;entryY=0.5;entryDx=0;entryDy=0;" edge="1" parent="1" source="B_VIeGHvaFGrBdhlPou_-159" target="B_VIeGHvaFGrBdhlPou_-160">
          <mxGeometry relative="1" as="geometry">
            <mxPoint x="-60" y="620" as="sourcePoint" />
            <mxPoint x="100" y="620" as="targetPoint" />
          </mxGeometry>
        </mxCell>
        <mxCell id="B_VIeGHvaFGrBdhlPou_-164" value="N" style="resizable=0;html=1;align=right;verticalAlign=bottom;" connectable="0" vertex="1" parent="B_VIeGHvaFGrBdhlPou_-163">
          <mxGeometry x="1" relative="1" as="geometry" />
        </mxCell>
        <mxCell id="B_VIeGHvaFGrBdhlPou_-165" value="HAS" style="shape=rhombus;perimeter=rhombusPerimeter;whiteSpace=wrap;html=1;align=center;" vertex="1" parent="1">
          <mxGeometry x="-160" y="410" width="120" height="60" as="geometry" />
        </mxCell>
        <mxCell id="B_VIeGHvaFGrBdhlPou_-169" value="" style="shape=link;html=1;rounded=0;exitX=1;exitY=0;exitDx=0;exitDy=0;entryX=0.5;entryY=1;entryDx=0;entryDy=0;" edge="1" parent="1" source="B_VIeGHvaFGrBdhlPou_-159" target="B_VIeGHvaFGrBdhlPou_-165">
          <mxGeometry relative="1" as="geometry">
            <mxPoint x="-60" y="390" as="sourcePoint" />
            <mxPoint x="-120" y="480" as="targetPoint" />
          </mxGeometry>
        </mxCell>
        <mxCell id="B_VIeGHvaFGrBdhlPou_-170" value="N" style="resizable=0;html=1;align=right;verticalAlign=bottom;" connectable="0" vertex="1" parent="B_VIeGHvaFGrBdhlPou_-169">
          <mxGeometry x="1" relative="1" as="geometry">
            <mxPoint x="-30" y="40" as="offset" />
          </mxGeometry>
        </mxCell>
        <mxCell id="B_VIeGHvaFGrBdhlPou_-173" value="" style="endArrow=none;html=1;rounded=0;exitX=1;exitY=0;exitDx=0;exitDy=0;entryX=0;entryY=0.75;entryDx=0;entryDy=0;" edge="1" parent="1" source="B_VIeGHvaFGrBdhlPou_-165" target="B_VIeGHvaFGrBdhlPou_-2">
          <mxGeometry relative="1" as="geometry">
            <mxPoint x="-60" y="390" as="sourcePoint" />
            <mxPoint x="100" y="390" as="targetPoint" />
            <Array as="points">
              <mxPoint x="100" y="300" />
            </Array>
          </mxGeometry>
        </mxCell>
        <mxCell id="B_VIeGHvaFGrBdhlPou_-174" value="1" style="resizable=0;html=1;align=right;verticalAlign=bottom;" connectable="0" vertex="1" parent="B_VIeGHvaFGrBdhlPou_-173">
          <mxGeometry x="1" relative="1" as="geometry">
            <mxPoint x="-80" y="45" as="offset" />
          </mxGeometry>
        </mxCell>
        <mxCell id="B_VIeGHvaFGrBdhlPou_-175" value="Process" style="shape=rhombus;perimeter=rhombusPerimeter;whiteSpace=wrap;html=1;align=center;" vertex="1" parent="1">
          <mxGeometry x="-332.5" y="460" width="85" height="40" as="geometry" />
        </mxCell>
        <mxCell id="B_VIeGHvaFGrBdhlPou_-176" value="" style="endArrow=none;html=1;rounded=0;exitX=0.5;exitY=1;exitDx=0;exitDy=0;entryX=0.5;entryY=0;entryDx=0;entryDy=0;" edge="1" parent="1" source="B_VIeGHvaFGrBdhlPou_-175" target="B_VIeGHvaFGrBdhlPou_-159">
          <mxGeometry relative="1" as="geometry">
            <mxPoint x="-380" y="460" as="sourcePoint" />
            <mxPoint x="-220" y="460" as="targetPoint" />
          </mxGeometry>
        </mxCell>
        <mxCell id="B_VIeGHvaFGrBdhlPou_-177" value="N" style="resizable=0;html=1;align=right;verticalAlign=bottom;" connectable="0" vertex="1" parent="B_VIeGHvaFGrBdhlPou_-176">
          <mxGeometry x="1" relative="1" as="geometry">
            <mxPoint y="-30" as="offset" />
          </mxGeometry>
        </mxCell>
        <mxCell id="B_VIeGHvaFGrBdhlPou_-180" value="" style="endArrow=none;html=1;rounded=0;exitX=0.5;exitY=0;exitDx=0;exitDy=0;" edge="1" parent="1" source="B_VIeGHvaFGrBdhlPou_-175">
          <mxGeometry relative="1" as="geometry">
            <mxPoint x="-380" y="390" as="sourcePoint" />
            <mxPoint x="-290" y="220" as="targetPoint" />
          </mxGeometry>
        </mxCell>
        <mxCell id="B_VIeGHvaFGrBdhlPou_-181" value="N" style="resizable=0;html=1;align=right;verticalAlign=bottom;" connectable="0" vertex="1" parent="B_VIeGHvaFGrBdhlPou_-180">
          <mxGeometry x="1" relative="1" as="geometry">
            <mxPoint x="15" y="80" as="offset" />
          </mxGeometry>
        </mxCell>
        <mxCell id="B_VIeGHvaFGrBdhlPou_-182" value="&lt;u&gt;F_ID&lt;/u&gt;" style="ellipse;whiteSpace=wrap;html=1;align=center;" vertex="1" parent="1">
          <mxGeometry x="-480" y="630" width="70" height="30" as="geometry" />
        </mxCell>
        <mxCell id="B_VIeGHvaFGrBdhlPou_-183" value="&lt;span&gt;Date/Time&lt;/span&gt;" style="ellipse;whiteSpace=wrap;html=1;align=center;fontStyle=0" vertex="1" parent="1">
          <mxGeometry x="-420" y="710" width="70" height="30" as="geometry" />
        </mxCell>
        <mxCell id="B_VIeGHvaFGrBdhlPou_-184" value="" style="endArrow=none;html=1;rounded=0;exitX=1;exitY=0.5;exitDx=0;exitDy=0;entryX=0;entryY=0.5;entryDx=0;entryDy=0;" edge="1" parent="1" source="B_VIeGHvaFGrBdhlPou_-182" target="B_VIeGHvaFGrBdhlPou_-159">
          <mxGeometry relative="1" as="geometry">
            <mxPoint x="-380" y="540" as="sourcePoint" />
            <mxPoint x="-220" y="540" as="targetPoint" />
          </mxGeometry>
        </mxCell>
        <mxCell id="B_VIeGHvaFGrBdhlPou_-185" value="" style="endArrow=none;html=1;rounded=0;exitX=0.5;exitY=0;exitDx=0;exitDy=0;entryX=0.25;entryY=1;entryDx=0;entryDy=0;" edge="1" parent="1" source="B_VIeGHvaFGrBdhlPou_-183" target="B_VIeGHvaFGrBdhlPou_-159">
          <mxGeometry relative="1" as="geometry">
            <mxPoint x="-380" y="540" as="sourcePoint" />
            <mxPoint x="-220" y="540" as="targetPoint" />
          </mxGeometry>
        </mxCell>
        <mxCell id="B_VIeGHvaFGrBdhlPou_-187" value="Status" style="ellipse;whiteSpace=wrap;html=1;align=center;" vertex="1" parent="1">
          <mxGeometry x="-450" y="410" width="70" height="30" as="geometry" />
        </mxCell>
        <mxCell id="B_VIeGHvaFGrBdhlPou_-189" value="Date/Time" style="ellipse;whiteSpace=wrap;html=1;align=center;" vertex="1" parent="1">
          <mxGeometry x="-460" y="470" width="70" height="30" as="geometry" />
        </mxCell>
        <mxCell id="B_VIeGHvaFGrBdhlPou_-190" value="Comment" style="ellipse;whiteSpace=wrap;html=1;align=center;" vertex="1" parent="1">
          <mxGeometry x="-430" y="515" width="70" height="30" as="geometry" />
        </mxCell>
        <mxCell id="B_VIeGHvaFGrBdhlPou_-191" value="" style="endArrow=none;html=1;rounded=0;exitX=1;exitY=0.5;exitDx=0;exitDy=0;entryX=0;entryY=1;entryDx=0;entryDy=0;" edge="1" parent="1" source="B_VIeGHvaFGrBdhlPou_-190" target="B_VIeGHvaFGrBdhlPou_-175">
          <mxGeometry relative="1" as="geometry">
            <mxPoint x="-160" y="480" as="sourcePoint" />
            <mxPoint y="480" as="targetPoint" />
          </mxGeometry>
        </mxCell>
        <mxCell id="B_VIeGHvaFGrBdhlPou_-192" value="" style="endArrow=none;html=1;rounded=0;exitX=1;exitY=0.5;exitDx=0;exitDy=0;entryX=0;entryY=0.5;entryDx=0;entryDy=0;" edge="1" parent="1" source="B_VIeGHvaFGrBdhlPou_-189" target="B_VIeGHvaFGrBdhlPou_-175">
          <mxGeometry relative="1" as="geometry">
            <mxPoint x="-160" y="480" as="sourcePoint" />
            <mxPoint y="480" as="targetPoint" />
          </mxGeometry>
        </mxCell>
        <mxCell id="B_VIeGHvaFGrBdhlPou_-193" value="" style="endArrow=none;html=1;rounded=0;exitX=1;exitY=0.5;exitDx=0;exitDy=0;entryX=0;entryY=0;entryDx=0;entryDy=0;" edge="1" parent="1" source="B_VIeGHvaFGrBdhlPou_-187" target="B_VIeGHvaFGrBdhlPou_-175">
          <mxGeometry relative="1" as="geometry">
            <mxPoint x="-160" y="480" as="sourcePoint" />
            <mxPoint y="480" as="targetPoint" />
          </mxGeometry>
        </mxCell>
        <mxCell id="B_VIeGHvaFGrBdhlPou_-194" value="&lt;u&gt;ID&lt;/u&gt;" style="ellipse;whiteSpace=wrap;html=1;align=center;" vertex="1" parent="1">
          <mxGeometry x="1000" y="380" width="70" height="30" as="geometry" />
        </mxCell>
        <mxCell id="B_VIeGHvaFGrBdhlPou_-195" value="Total_Amount" style="ellipse;whiteSpace=wrap;html=1;align=center;" vertex="1" parent="1">
          <mxGeometry x="1000" y="465" width="90" height="30" as="geometry" />
        </mxCell>
        <mxCell id="B_VIeGHvaFGrBdhlPou_-199" value="" style="endArrow=none;html=1;rounded=0;entryX=0;entryY=0.5;entryDx=0;entryDy=0;exitX=1;exitY=0.5;exitDx=0;exitDy=0;" edge="1" parent="1" source="B_VIeGHvaFGrBdhlPou_-9" target="B_VIeGHvaFGrBdhlPou_-194">
          <mxGeometry relative="1" as="geometry">
            <mxPoint x="730" y="440" as="sourcePoint" />
            <mxPoint x="890" y="440" as="targetPoint" />
          </mxGeometry>
        </mxCell>
        <mxCell id="B_VIeGHvaFGrBdhlPou_-201" value="" style="endArrow=none;html=1;rounded=0;entryX=0;entryY=0.5;entryDx=0;entryDy=0;exitX=0.75;exitY=1;exitDx=0;exitDy=0;" edge="1" parent="1" source="B_VIeGHvaFGrBdhlPou_-9" target="B_VIeGHvaFGrBdhlPou_-195">
          <mxGeometry relative="1" as="geometry">
            <mxPoint x="730" y="440" as="sourcePoint" />
            <mxPoint x="890" y="440" as="targetPoint" />
          </mxGeometry>
        </mxCell>
        <mxCell id="B_VIeGHvaFGrBdhlPou_-203" value="Payment" style="whiteSpace=wrap;html=1;align=center;" vertex="1" parent="1">
          <mxGeometry x="290" y="1010" width="100" height="40" as="geometry" />
        </mxCell>
        <mxCell id="B_VIeGHvaFGrBdhlPou_-205" value="MAKE" style="shape=rhombus;perimeter=rhombusPerimeter;whiteSpace=wrap;html=1;align=center;" vertex="1" parent="1">
          <mxGeometry x="300" y="860" width="80" height="40" as="geometry" />
        </mxCell>
        <mxCell id="B_VIeGHvaFGrBdhlPou_-206" value="" style="shape=link;html=1;rounded=0;entryX=0.5;entryY=0;entryDx=0;entryDy=0;exitX=0.5;exitY=1;exitDx=0;exitDy=0;" edge="1" parent="1" source="B_VIeGHvaFGrBdhlPou_-205" target="B_VIeGHvaFGrBdhlPou_-203">
          <mxGeometry relative="1" as="geometry">
            <mxPoint x="300" y="880" as="sourcePoint" />
            <mxPoint x="460" y="880" as="targetPoint" />
          </mxGeometry>
        </mxCell>
        <mxCell id="B_VIeGHvaFGrBdhlPou_-207" value="N" style="resizable=0;html=1;align=right;verticalAlign=bottom;" connectable="0" vertex="1" parent="B_VIeGHvaFGrBdhlPou_-206">
          <mxGeometry x="1" relative="1" as="geometry">
            <mxPoint x="-10" y="-40" as="offset" />
          </mxGeometry>
        </mxCell>
        <mxCell id="B_VIeGHvaFGrBdhlPou_-208" value="" style="endArrow=none;html=1;rounded=0;entryX=0.5;entryY=0;entryDx=0;entryDy=0;exitX=0.5;exitY=1;exitDx=0;exitDy=0;" edge="1" parent="1" source="B_VIeGHvaFGrBdhlPou_-1" target="B_VIeGHvaFGrBdhlPou_-205">
          <mxGeometry relative="1" as="geometry">
            <mxPoint x="300" y="880" as="sourcePoint" />
            <mxPoint x="460" y="880" as="targetPoint" />
          </mxGeometry>
        </mxCell>
        <mxCell id="B_VIeGHvaFGrBdhlPou_-209" value="1" style="resizable=0;html=1;align=right;verticalAlign=bottom;" connectable="0" vertex="1" parent="B_VIeGHvaFGrBdhlPou_-208">
          <mxGeometry x="1" relative="1" as="geometry" />
        </mxCell>
        <mxCell id="B_VIeGHvaFGrBdhlPou_-210" value="&lt;u&gt;Payment_ID&lt;/u&gt;" style="ellipse;whiteSpace=wrap;html=1;align=center;" vertex="1" parent="1">
          <mxGeometry x="132.5" y="1050" width="70" height="30" as="geometry" />
        </mxCell>
        <mxCell id="B_VIeGHvaFGrBdhlPou_-212" value="TotalAmount" style="ellipse;whiteSpace=wrap;html=1;align=center;" vertex="1" parent="1">
          <mxGeometry x="270" y="1110" width="90" height="30" as="geometry" />
        </mxCell>
        <mxCell id="B_VIeGHvaFGrBdhlPou_-213" value="Payment_method" style="ellipse;whiteSpace=wrap;html=1;align=center;" vertex="1" parent="1">
          <mxGeometry x="440" y="1090" width="120" height="30" as="geometry" />
        </mxCell>
        <mxCell id="B_VIeGHvaFGrBdhlPou_-214" value="" style="endArrow=none;html=1;rounded=0;entryX=0;entryY=0;entryDx=0;entryDy=0;exitX=0.75;exitY=1;exitDx=0;exitDy=0;" edge="1" parent="1" source="B_VIeGHvaFGrBdhlPou_-203" target="B_VIeGHvaFGrBdhlPou_-213">
          <mxGeometry relative="1" as="geometry">
            <mxPoint x="300" y="970" as="sourcePoint" />
            <mxPoint x="460" y="970" as="targetPoint" />
          </mxGeometry>
        </mxCell>
        <mxCell id="B_VIeGHvaFGrBdhlPou_-215" value="" style="endArrow=none;html=1;rounded=0;exitX=0.5;exitY=0;exitDx=0;exitDy=0;entryX=0.5;entryY=1;entryDx=0;entryDy=0;" edge="1" parent="1" source="B_VIeGHvaFGrBdhlPou_-212" target="B_VIeGHvaFGrBdhlPou_-203">
          <mxGeometry relative="1" as="geometry">
            <mxPoint x="300" y="970" as="sourcePoint" />
            <mxPoint x="460" y="970" as="targetPoint" />
          </mxGeometry>
        </mxCell>
        <mxCell id="B_VIeGHvaFGrBdhlPou_-216" value="" style="endArrow=none;html=1;rounded=0;exitX=1;exitY=0.5;exitDx=0;exitDy=0;entryX=0;entryY=0.75;entryDx=0;entryDy=0;" edge="1" parent="1" source="B_VIeGHvaFGrBdhlPou_-210" target="B_VIeGHvaFGrBdhlPou_-203">
          <mxGeometry relative="1" as="geometry">
            <mxPoint x="300" y="970" as="sourcePoint" />
            <mxPoint x="460" y="970" as="targetPoint" />
          </mxGeometry>
        </mxCell>
        <mxCell id="B_VIeGHvaFGrBdhlPou_-218" value="Date/Time" style="ellipse;whiteSpace=wrap;html=1;align=center;" vertex="1" parent="1">
          <mxGeometry x="110" y="865" width="90" height="30" as="geometry" />
        </mxCell>
        <mxCell id="B_VIeGHvaFGrBdhlPou_-219" value="" style="endArrow=none;html=1;rounded=0;exitX=1;exitY=0.5;exitDx=0;exitDy=0;entryX=0;entryY=0.5;entryDx=0;entryDy=0;" edge="1" parent="1" source="B_VIeGHvaFGrBdhlPou_-218" target="B_VIeGHvaFGrBdhlPou_-205">
          <mxGeometry relative="1" as="geometry">
            <mxPoint x="300" y="970" as="sourcePoint" />
            <mxPoint x="460" y="970" as="targetPoint" />
          </mxGeometry>
        </mxCell>
        <mxCell id="B_VIeGHvaFGrBdhlPou_-221" value="e-Bookstore" style="text;strokeColor=none;fillColor=none;html=1;fontSize=24;fontStyle=1;verticalAlign=middle;align=center;" vertex="1" parent="1">
          <mxGeometry x="250" y="-100" width="100" height="40" as="geometry" />
        </mxCell>
      </root>
    </mxGraphModel>
  </diagram>
</mxfile>
